<svg width="163" height="24" viewBox="0 0 163 24" fill="none" xmlns="http://www.w3.org/2000/svg">
<path fill-rule="evenodd" clip-rule="evenodd" d="M16.8887 18.3184C16.7167 17.8854 16.4727 17.5074 16.2587 17.1844C16.1507 17.0224 16.0397 16.8574 15.9427 16.6874C15.5537 16.0114 15.6877 15.7374 16.3187 14.6804L16.4207 14.5074C16.9317 13.6464 16.9597 12.8204 16.9857 12.0924C16.9977 11.7344 17.0097 11.3974 17.0787 11.0804C17.2397 10.3484 18.7867 10.1534 19.7457 10.0384C19.9067 10.6674 19.9997 11.3224 19.9997 12.0004C19.9997 14.5694 18.7777 16.8534 16.8887 18.3184ZM11.9997 4.0004C12.6157 4.0004 13.2107 4.0764 13.7867 4.2084C13.6177 4.5804 13.3567 4.9194 13.0127 5.1884C12.7947 5.3604 12.5497 5.5034 12.3067 5.6484C11.6557 6.0364 10.9187 6.4764 10.4567 7.3224C9.84069 8.4524 9.84069 9.6064 9.84069 10.6244C9.84069 11.9794 9.79669 12.7804 8.89269 13.4874C7.52369 14.5604 5.42869 13.9614 4.13269 13.4164C4.05069 12.9554 3.99969 12.4834 3.99969 12.0004C3.99969 7.5894 7.5887 4.0004 11.9997 4.0004ZM11.9997 2.0004C6.48569 2.0004 1.99969 6.4864 1.99969 12.0004C1.99969 17.5134 6.48569 22.0004 11.9997 22.0004C17.5137 22.0004 21.9997 17.5134 21.9997 12.0004C21.9997 6.4864 17.5137 2.0004 11.9997 2.0004Z" fill="#181B32"/>
<mask id="mask0" mask-type="alpha" maskUnits="userSpaceOnUse" x="1" y="2" width="21" height="21">
<path fill-rule="evenodd" clip-rule="evenodd" d="M16.8887 18.3184C16.7167 17.8854 16.4727 17.5074 16.2587 17.1844C16.1507 17.0224 16.0397 16.8574 15.9427 16.6874C15.5537 16.0114 15.6877 15.7374 16.3187 14.6804L16.4207 14.5074C16.9317 13.6464 16.9597 12.8204 16.9857 12.0924C16.9977 11.7344 17.0097 11.3974 17.0787 11.0804C17.2397 10.3484 18.7867 10.1534 19.7457 10.0384C19.9067 10.6674 19.9997 11.3224 19.9997 12.0004C19.9997 14.5694 18.7777 16.8534 16.8887 18.3184ZM11.9997 4.0004C12.6157 4.0004 13.2107 4.0764 13.7867 4.2084C13.6177 4.5804 13.3567 4.9194 13.0127 5.1884C12.7947 5.3604 12.5497 5.5034 12.3067 5.6484C11.6557 6.0364 10.9187 6.4764 10.4567 7.3224C9.84069 8.4524 9.84069 9.6064 9.84069 10.6244C9.84069 11.9794 9.79669 12.7804 8.89269 13.4874C7.52369 14.5604 5.42869 13.9614 4.13269 13.4164C4.05069 12.9554 3.99969 12.4834 3.99969 12.0004C3.99969 7.5894 7.5887 4.0004 11.9997 4.0004ZM11.9997 2.0004C6.48569 2.0004 1.99969 6.4864 1.99969 12.0004C1.99969 17.5134 6.48569 22.0004 11.9997 22.0004C17.5137 22.0004 21.9997 17.5134 21.9997 12.0004C21.9997 6.4864 17.5137 2.0004 11.9997 2.0004Z" fill="white"/>
</mask>
<g mask="url(#mask0)">
<rect width="24" height="24" fill="#181B32"/>
</g>
<path d="M46.517 9.90909C46.2045 6.30114 43.5625 4.25568 39.8977 4.25568C35.9773 4.25568 32.8807 6.86932 32.8807 11.7273C32.8807 16.5639 35.892 19.1989 39.8977 19.1989C44.1591 19.1989 46.3182 16.2443 46.517 13.7727L42.5114 13.7443C42.3125 14.9872 41.4318 15.7614 39.983 15.7614C38.0582 15.7614 36.9432 14.3977 36.9432 11.7273C36.9432 9.19886 38.0227 7.69318 40.0114 7.69318C41.5312 7.69318 42.3977 8.58807 42.5114 9.90909H46.517ZM48.3654 19H52.2859V13.3182C52.2859 12.0682 53.1452 11.2443 54.3029 11.2443C54.7077 11.2443 55.3612 11.3082 55.7518 11.4432V8.09801C55.4393 8.00568 55.0984 7.94886 54.7575 7.94886C53.5927 7.94886 52.6836 8.63068 52.2859 10.1648H52.1722V8.09091H48.3654V19ZM59.5692 19.1705C60.9897 19.1705 62.0621 18.6875 62.7227 17.4659H62.8079V19H66.4727V11.5284C66.4727 9.51136 64.5621 7.94886 61.4442 7.94886C58.1843 7.94886 56.5792 9.65341 56.4442 11.642H60.0522C60.1445 10.9673 60.6417 10.6477 61.3874 10.6477C62.0692 10.6477 62.5522 10.9602 62.5522 11.5284V11.5568C62.5522 12.1889 61.8562 12.3878 60.0238 12.5227C57.7724 12.6861 56.0181 13.5952 56.0181 15.9886C56.0181 18.1619 57.4812 19.1705 59.5692 19.1705ZM60.8477 16.6989C60.18 16.6989 59.7113 16.3722 59.7113 15.7614C59.7113 15.2003 60.109 14.767 61.0181 14.625C61.6431 14.5256 62.1687 14.3977 62.5806 14.2273V15.1364C62.5806 16.1307 61.7354 16.6989 60.8477 16.6989ZM78.3175 11.642C78.218 9.33381 76.3004 7.94886 73.147 7.94886C70.0291 7.94886 68.1044 9.22727 68.1186 11.5C68.1044 13.2188 69.2195 14.3196 71.4425 14.7102L73.3743 15.0511C74.2266 15.2074 74.6101 15.4347 74.6243 15.8466C74.6101 16.3011 74.0916 16.5568 73.3743 16.5568C72.4865 16.5568 71.8615 16.1733 71.755 15.4773H67.8629C68.076 17.7145 70.0078 19.1989 73.3459 19.1989C76.3643 19.1989 78.5874 17.7287 78.6016 15.392C78.5874 13.7798 77.5078 12.8423 75.2777 12.4375L73.0618 12.0398C72.2308 11.8906 71.9964 11.5923 72.0107 11.2727C71.9964 10.8182 72.5575 10.5625 73.2322 10.5625C74.0064 10.5625 74.6527 10.9744 74.7095 11.642H78.3175ZM84.0241 12.8636C84.0312 11.7841 84.6562 11.1307 85.6151 11.1307C86.6165 11.1307 87.1847 11.7841 87.1776 12.8636V19H91.098V12.0398C91.1051 9.65341 89.5994 7.94886 87.2912 7.94886C85.679 7.94886 84.4858 8.77273 83.9957 10.1648H83.8821V4.45455H80.1037V19H84.0241V12.8636ZM98.2891 19.1989C101.521 19.1989 103.502 17.3452 103.545 14.4545H99.9084C99.8232 15.598 99.2053 16.2159 98.3459 16.2159C97.3161 16.2159 96.6413 15.3352 96.6413 13.5455C96.6413 11.7557 97.3161 10.875 98.3459 10.875C99.2124 10.875 99.8018 11.4929 99.9084 12.6364H103.545C103.523 9.79545 101.499 7.94886 98.2891 7.94886C94.7379 7.94886 92.6357 10.2216 92.6357 13.5739C92.6357 16.9261 94.7379 19.1989 98.2891 19.1989ZM110.418 19.1989C113.969 19.1989 116.071 16.9261 116.071 13.5739C116.071 10.2216 113.969 7.94886 110.418 7.94886C106.867 7.94886 104.765 10.2216 104.765 13.5739C104.765 16.9261 106.867 19.1989 110.418 19.1989ZM110.446 16.3011C109.395 16.3011 108.77 15.2571 108.77 13.5455C108.77 11.8338 109.395 10.7898 110.446 10.7898C111.441 10.7898 112.066 11.8338 112.066 13.5455C112.066 15.2571 111.441 16.3011 110.446 16.3011ZM124.736 14.2273C124.743 15.3068 124.118 15.9602 123.145 15.9602C122.158 15.9602 121.59 15.3068 121.583 14.2273V8.09091H117.662V15.0511C117.669 17.4375 119.175 19.142 121.469 19.142C123.096 19.142 124.346 18.3182 124.821 16.9261H124.935V19H128.657V8.09091H124.736V14.2273ZM130.651 19H134.571V13.3182C134.571 12.0682 135.43 11.2443 136.588 11.2443C136.993 11.2443 137.646 11.3082 138.037 11.4432V8.09801C137.724 8.00568 137.384 7.94886 137.043 7.94886C135.878 7.94886 134.969 8.63068 134.571 10.1648H134.457V8.09091H130.651V19ZM149.294 11.642C149.195 9.33381 147.277 7.94886 144.124 7.94886C141.006 7.94886 139.081 9.22727 139.095 11.5C139.081 13.2188 140.196 14.3196 142.419 14.7102L144.351 15.0511C145.203 15.2074 145.587 15.4347 145.601 15.8466C145.587 16.3011 145.068 16.5568 144.351 16.5568C143.463 16.5568 142.838 16.1733 142.732 15.4773H138.839C139.053 17.7145 140.984 19.1989 144.322 19.1989C147.341 19.1989 149.564 17.7287 149.578 15.392C149.564 13.7798 148.484 12.8423 146.254 12.4375L144.038 12.0398C143.207 11.8906 142.973 11.5923 142.987 11.2727C142.973 10.8182 143.534 10.5625 144.209 10.5625C144.983 10.5625 145.629 10.9744 145.686 11.642H149.294ZM156.308 19.1989C159.333 19.1989 161.279 17.75 161.648 15.4773H158.069C157.842 16.0952 157.195 16.4432 156.393 16.4432C155.228 16.4432 154.546 15.6761 154.546 14.625V14.4545H161.648V13.5455C161.648 10.0724 159.518 7.94886 156.222 7.94886C152.842 7.94886 150.683 10.1932 150.683 13.5739C150.683 17.1037 152.813 19.1989 156.308 19.1989ZM154.546 12.2955C154.567 11.3509 155.349 10.7045 156.308 10.7045C157.281 10.7045 158.019 11.358 158.04 12.2955H154.546Z" fill="black"/>
</svg>
